<svg xmlns="http://www.w3.org/2000/svg" width="298.35" height="443.7" viewBox="160.65 128.25 298.35 443.7"><path d="M459 503.1h-76.5v-15.3h61.2V225.18l-83.45-81.63h-184.3V487.8h68.85v15.3h-84.15V128.25H366.5l92.5 90.5" stroke="white" fill="white"/><path d="M451.35 235.35H351.9V135.9c0-4.22 3.42-7.65 7.65-7.65s7.65 3.43 7.65 7.65v84.15h84.15c4.23 0 7.65 3.43 7.65 7.65 0 4.22-3.42 7.65-7.65 7.65zM337.1 571.95h-46.9c-8.15 0-14.78-6.63-14.78-14.8V441.4l-23.4.5c-5.73 0-10.83-3.2-13.32-8.38-2.5-5.18-1.8-11.17 1.78-15.65l63.7-79.5c5.56-6.94 17.13-7.1 22.85-.28l66.8 79.5c3.74 4.43 4.54 10.5 2.1 15.74-2.46 5.27-7.6 8.54-13.4 8.54h-31.1l.5 115.25c0 8.16-6.63 14.8-14.8 14.8zm-84-145.35h22.83c8.17 0 14.8 6.63 14.8 14.8v115.77l45.9-.5V441.4c0-8.17 6.63-14.8 14.8-14.8h29.98l-65.65-78.2-62.62 78.2z" stroke="white" fill="white"/></svg>
